<svg version="1.0" xmlns="http://www.w3.org/2000/svg" width="965.333" height="965.333" viewBox="0 0 724 724"><path d="M343.6 111.7c-.3.3-9.8.7-21.3.8-28.8.5-37.5 1.5-56.8 6.5-21 5.5-43.8 18.8-60.7 35.3-7.7 7.6-15.2 16.2-18.8 21.7-.8 1.3-2.5 3.5-3.7 5-1.3 1.5-2.3 3.2-2.3 3.7s-.8 1.8-1.8 2.9c-3.5 3.8-20.1 38.4-18.5 38.4.3 0 .1.6-.5 1.2-2.1 2.6-10.9 33.6-12.8 44.8-.2 1.4-.7 4.1-1 6-.3 1.9-.8 5.1-1 7-.2 1.9-.6 4.4-.9 5.6-.2 1.2-.7 7-1 13l-.6 10.9 2.2-3.5c5.2-8.5 23.3-26 26.8-26 .6 0 1.1-.5 1.1-1.1 0-.5.5-.7 1-.4.6.3 1 .2 1-.3 0-2.1 25.8-11.9 36-13.7 16.6-2.9 24.8-3.3 60-2.8 81.5 1.3 241.9.5 263.5-1.2 4-.3 13.3-1.4 17-2 5-.8 9.1-1.6 10.7-2.1.9-.3 2.5-.6 3.5-.8 2.3-.5 11.1-3.2 18.8-5.8 10.9-3.7 31.3-14 41.9-21 4.9-3.3 21.5-16 24.6-18.8 9.1-8.3 11-10.2 17.5-17.1 3.9-4.1 10.1-11.2 13.8-15.9 3.7-4.7 7.2-9.1 7.8-9.8 9-10.8 30.1-48.3 32.4-57.4l.6-2.3h-23.3c-12.8 0-24-.3-24.9-.7-.8-.3-2.1-.3-2.8.1-.7.5-2.9.5-5 .1s-4.7-.3-5.9.1c-1.2.5-2.4.4-2.6 0-.6-.8-313.2-1.2-314-.4zM215.7 334.6c-.1.1-3.8.4-8.2.8-4.4.3-10.2.8-13 1.1-7.8.8-30.9 5.6-32.2 6.7-.7.6-1.3.8-1.3.5 0-.6-5.9 1.2-15.4 4.7-9.5 3.6-28.6 12.7-28.6 13.8 0 .4-.5.8-1.1.8-.6 0-3.1 1.3-5.6 3-2.4 1.6-4.8 3-5.4 3-.5 0-.9.4-.9.8 0 .5-1 1.4-2.2 2-3.6 1.7-15.6 11.6-24.3 20.1-15 14.6-27.9 31.3-38.9 50.4-4.9 8.6-13.6 26-13.6 27.4 0 .2-.9 2.3-1.9 4.7C20.5 480 11.9 505 12.6 505c.2 0 0 .8-.5 1.8-.6 1.1-1.2 3-1.5 4.3-.3 1.3-1 4.4-1.7 6.9-1.3 5.4-1.8 7.5-2.4 11.5-.3 1.6-1.2 6.4-2 10.5-.7 4.1-1.6 10.2-2 13.5-.4 3.3-.9 7.1-1.2 8.5-.2 1.4-.7 13-.9 25.8-.3 16.9-.1 23.3.7 23 .6-.2 2.3-2.6 3.8-5.3 2.4-4.6 8.8-14.8 12.2-19.7 5.7-8.1 14.9-20.6 16.4-22.2.6-.6 3.2-3.8 6-7.1 11.3-13.6 32.2-32.3 45.9-40.9 16.3-10.3 35.8-18 49.1-19.2 3.3-.3 33.9-.7 68-.9 34.1-.2 63.6-.6 65.5-.8 32.2-5 65.9-22.2 98-50.2 6-5.3 29.3-28.9 33.5-33.9 2.2-2.7 5-6.1 6.3-7.4 2.6-3 3.8-4.5 13.6-17.4 4-5.3 8.8-12 10.7-15 1.8-2.9 3.6-5.5 4-5.8.3-.3 1.9-2.7 3.5-5.3 1.6-2.7 3.9-6.5 5.1-8.5 4.7-7.6 8.8-15.6 8.3-16.2-.4-.4-234.8-.8-235.3-.4z"/></svg>